# xmcd
#
# Track frame offsets: 
#        150
#        13710
#        27358
#        41075
#        53199
#        67431
#        79906
#        94467
#        106848
#        119586
#        132706
#        147246
#        160313
#        174037
#        186622
#        202218
#        217624
#        232165
#        246317
#        261396
#        275120
#
# Disc length: 3864 seconds
#
# Revision: 1
# Processed by: cddbd v1.5.2PL0 Copyright (c) Steve Scherf et al.
# Submitted via: ExactAudioCopyFreeDBPlugin 1.0
#
DISCID=540f1615
DTITLE=Teddy Wilson - Swing Time 071 - Teddy Wilson 04 - 1937
DYEAR=1937
DGENRE=Jazz
TTITLE0=Foolin' Myself
TTITLE1=Easy Living
TTITLE2=I'll Never Be The Same
TTITLE3=I've Found A New Baby
TTITLE4=You're My Desire
TTITLE5=Remember Me
TTITLE6=The Hour Of Parting
TTITLE7=Coquette
TTITLE8=Big Apple
TTITLE9=You Can't Stop Me From Dreaming
TTITLE10=If I Had You
TTITLE11=You Brought A New Kind Of Love To Me
TTITLE12=Ain't Misbehavin'
TTITLE13=Ain't Misbehavin'
TTITLE14=Just A Mood - Part 1
TTITLE15=Just A Mood - Part 2
TTITLE16=Honeysuckle Rose
TTITLE17=Nice Work If You Can Get It
TTITLE18=Things Are Looking Up
TTITLE19=My Man
TTITLE20=Can't Help Lovin' Dat Man
EXTD=YEAR: 2006
EXTT0=
EXTT1=
EXTT2=
EXTT3=
EXTT4=
EXTT5=
EXTT6=
EXTT7=
EXTT8=
EXTT9=
EXTT10=
EXTT11=
EXTT12=
EXTT13=
EXTT14=
EXTT15=
EXTT16=
EXTT17=
EXTT18=
EXTT19=
EXTT20=
PLAYORDER=
